<?xml version="1.0" encoding="UTF-8" ?>
<!DOCTYPE svg PUBLIC "-//W3C//DTD SVG 1.1//EN" "http://www.w3.org/Graphics/SVG/1.1/DTD/svg11.dtd">
<svg width="650pt" height="621pt" viewBox="0 0 650 621" version="1.1" xmlns="http://www.w3.org/2000/svg">
<g id="#000000ff">
<path fill="#000000" opacity="1.00" d=" M 0.00 0.00 L 650.00 0.00 L 650.00 621.00 L 350.04 621.00 C 350.15 620.58 350.38 619.73 350.49 619.30 C 372.84 616.82 395.05 612.61 416.43 605.56 C 455.20 592.79 491.70 572.59 522.38 545.62 C 526.38 543.02 529.20 539.05 533.00 536.20 C 540.74 530.19 546.29 522.01 553.33 515.28 C 556.77 510.50 561.34 506.52 564.12 501.28 C 564.55 501.22 565.42 501.10 565.85 501.05 C 565.24 500.89 564.00 500.58 563.39 500.42 L 563.43 499.67 C 536.89 489.99 508.39 486.81 480.29 486.04 C 479.50 488.64 478.93 491.32 477.96 493.86 C 462.21 494.16 446.43 493.96 430.66 493.96 C 431.28 492.17 432.04 490.44 432.88 488.75 C 419.75 490.58 406.76 493.29 393.98 496.82 C 391.39 497.73 388.63 497.25 385.98 497.04 C 359.75 494.07 333.15 494.35 307.00 497.92 C 292.09 499.69 277.64 503.85 262.96 506.78 C 273.82 503.31 284.87 500.38 296.15 498.63 C 256.00 484.06 212.45 480.72 170.11 484.44 C 171.53 487.62 173.08 490.74 174.39 493.96 C 160.85 493.82 147.27 494.42 133.75 493.65 C 133.66 492.85 133.48 491.23 133.39 490.43 C 117.46 494.34 101.36 498.97 87.36 507.77 L 87.66 508.76 C 87.04 508.65 85.79 508.44 85.17 508.33 C 94.44 520.43 105.21 531.33 116.59 541.45 C 163.59 583.98 224.07 611.40 287.09 618.45 C 291.72 619.12 296.42 619.18 301.04 620.02 C 312.36 620.19 323.69 620.87 335.01 620.18 C 339.70 620.17 344.35 619.32 349.03 619.45 L 348.25 621.00 L 297.03 621.00 L 297.27 620.37 C 295.86 619.64 294.61 619.84 293.53 621.00 L 0.00 621.00 L 0.00 0.00 M 435.80 135.64 C 438.99 136.52 442.41 136.49 445.53 137.62 C 448.27 139.47 446.67 143.45 444.06 144.60 C 429.47 146.41 415.64 153.61 405.49 164.22 C 416.19 160.45 427.71 156.76 439.13 159.18 C 441.85 159.82 445.14 161.80 444.96 164.96 C 444.70 167.52 441.95 168.15 439.90 168.64 C 451.01 168.04 462.90 170.30 471.92 177.17 C 474.03 178.89 476.89 181.08 475.90 184.22 C 475.66 186.05 473.76 187.20 472.01 186.97 C 459.75 184.92 447.20 184.77 434.89 186.55 C 435.64 186.94 436.40 187.32 437.17 187.71 C 439.93 189.84 443.23 191.63 444.81 194.90 C 448.76 202.43 455.16 208.42 458.61 216.25 C 460.65 221.11 466.14 225.27 464.02 231.11 C 460.37 239.39 451.60 243.45 446.24 250.38 C 444.04 253.09 441.20 255.29 439.52 258.40 C 438.29 260.70 436.36 262.47 434.20 263.87 C 435.69 264.66 437.52 266.06 436.86 268.02 C 434.13 279.09 432.70 290.51 433.05 301.92 C 433.14 314.49 436.10 327.81 444.90 337.26 C 444.23 334.23 444.25 331.14 444.61 328.08 C 444.20 324.94 443.50 321.72 444.45 318.60 C 444.57 310.81 444.93 302.58 448.61 295.55 C 449.54 293.49 451.68 292.79 453.74 292.49 C 452.40 286.47 451.95 280.06 453.43 274.03 C 454.59 270.99 456.23 267.02 460.03 266.84 C 463.24 266.74 464.98 270.05 467.27 271.79 C 468.94 262.60 471.25 253.45 474.97 244.86 C 477.53 239.53 481.13 233.79 487.20 232.12 C 489.67 230.98 492.43 233.37 492.74 235.81 C 497.78 283.17 491.06 331.04 478.71 376.82 C 468.19 415.73 453.87 453.56 436.71 490.01 C 449.47 489.99 462.23 490.00 474.99 490.01 C 494.98 420.14 502.94 347.38 504.94 274.96 C 505.47 270.93 503.02 267.04 504.40 263.09 C 505.23 260.11 504.87 257.00 504.93 253.96 C 504.78 245.97 505.12 237.97 504.54 230.00 C 504.33 227.49 506.02 224.54 508.85 224.79 C 510.90 225.22 512.35 226.87 513.66 228.38 C 518.60 234.50 522.36 241.51 525.11 248.87 C 526.60 252.46 527.24 256.34 528.94 259.85 C 530.63 256.53 530.86 252.36 533.30 249.49 C 537.31 246.88 540.65 251.15 543.11 253.81 C 545.88 257.35 549.93 260.02 551.35 264.47 C 552.56 268.28 553.92 272.04 554.99 275.90 C 555.62 274.19 556.37 272.31 555.61 270.52 C 553.82 265.25 555.85 259.79 557.71 254.86 C 557.66 252.52 557.10 250.23 556.86 247.91 C 555.17 235.57 547.73 224.48 537.73 217.23 C 536.05 215.92 533.75 214.56 533.92 212.10 C 534.42 208.87 538.24 208.35 540.89 208.76 C 552.17 210.06 563.68 211.50 574.15 216.15 C 573.71 214.79 573.05 213.48 572.98 212.03 C 573.50 208.86 577.38 208.20 580.02 208.86 C 591.65 210.76 603.33 214.59 612.63 222.07 C 608.43 213.05 601.98 204.85 593.26 199.85 C 590.44 198.13 587.32 197.03 584.38 195.57 C 582.08 194.19 582.46 190.79 583.95 188.94 C 586.22 187.30 589.03 186.82 591.76 186.53 C 589.78 185.44 587.90 184.18 585.98 183.01 C 585.72 182.54 585.20 181.59 584.94 181.12 C 582.84 179.84 580.80 178.48 578.82 177.03 C 568.17 176.81 557.51 177.46 546.88 177.23 C 542.99 177.43 538.84 178.55 535.12 176.97 C 532.58 175.80 532.07 172.17 534.40 170.51 C 539.30 166.09 545.05 162.42 551.34 160.32 C 548.74 159.91 545.82 158.00 546.01 155.05 C 547.14 152.08 549.13 149.54 551.14 147.11 C 557.30 139.85 566.93 136.93 576.16 136.52 C 575.11 135.97 574.06 135.42 573.06 134.80 C 569.02 132.68 564.64 130.89 560.01 131.02 C 550.20 130.51 541.03 134.90 532.82 139.79 C 529.22 141.76 525.26 137.67 527.25 134.07 C 516.79 139.19 507.24 147.61 503.54 158.95 C 501.77 163.45 501.94 168.40 500.58 173.01 C 499.75 175.63 495.25 175.64 494.43 172.99 C 492.85 168.41 491.96 163.60 489.94 159.17 C 485.46 148.08 478.14 136.90 466.50 132.48 C 461.94 130.40 456.85 131.06 452.01 131.02 C 446.34 131.35 441.03 133.62 435.80 135.64 M 317.09 168.55 C 276.20 187.37 240.98 218.16 216.36 255.80 C 216.88 256.79 217.40 257.79 217.92 258.79 C 217.09 258.69 215.42 258.48 214.58 258.38 C 212.64 261.81 210.08 264.95 208.84 268.74 C 212.74 281.28 214.60 295.40 209.03 307.74 C 205.30 302.15 202.64 295.94 199.09 290.23 C 198.68 295.84 197.31 301.40 197.84 307.05 C 198.67 314.14 199.41 321.36 202.09 328.04 C 202.24 328.57 202.55 329.63 202.70 330.16 C 203.12 331.10 203.53 332.05 203.91 333.02 C 210.84 349.26 223.96 363.26 240.83 369.19 C 250.28 372.30 260.46 370.48 270.09 369.22 C 271.65 368.47 273.41 368.40 275.09 368.13 C 298.34 362.50 319.68 351.38 341.88 342.81 C 346.50 341.17 351.07 339.38 355.82 338.15 C 355.38 340.78 354.65 343.35 354.06 345.95 C 345.34 375.83 324.90 402.25 297.93 417.84 C 293.08 420.55 288.05 422.99 282.79 424.79 C 274.92 427.99 266.45 429.07 258.11 430.17 C 255.05 430.28 251.98 430.29 248.93 430.15 C 243.33 429.23 237.65 428.84 232.17 427.24 C 232.41 419.82 232.73 412.40 232.85 404.97 C 233.45 399.31 233.69 393.62 233.73 387.93 C 227.28 393.77 220.06 398.86 214.02 405.08 C 215.31 408.69 218.26 411.48 220.29 414.72 C 233.51 432.39 249.47 448.51 268.92 459.24 C 272.90 461.25 276.91 463.19 281.09 464.73 C 282.09 465.11 283.09 465.49 284.10 465.86 C 285.39 466.28 286.70 466.61 288.01 466.99 C 299.99 470.18 312.94 470.72 324.91 467.27 C 350.52 455.17 369.93 432.73 382.90 407.96 C 388.93 395.38 396.23 382.27 395.20 367.85 C 394.12 362.60 392.92 357.29 390.30 352.55 C 383.92 340.82 373.42 331.79 361.84 325.41 C 355.47 322.10 348.91 318.93 341.86 317.38 C 332.83 316.70 323.77 318.22 314.95 320.04 C 313.33 320.36 311.71 320.63 310.15 321.16 C 308.78 321.46 307.42 321.74 306.08 322.15 C 300.43 323.71 294.76 325.24 289.20 327.11 C 275.10 331.51 261.18 336.57 246.74 339.76 C 249.83 331.20 254.03 323.09 258.17 315.00 C 281.58 271.76 317.30 235.40 359.82 210.78 C 367.70 206.23 375.78 201.99 384.13 198.36 C 385.76 197.61 387.40 196.89 389.05 196.20 C 394.57 194.09 399.95 191.38 405.75 190.18 C 405.26 193.44 404.78 196.71 403.90 199.90 C 403.47 202.34 402.78 204.72 402.10 207.11 C 400.51 211.77 399.02 216.47 396.85 220.90 C 383.47 250.20 359.84 272.75 340.28 297.81 C 349.25 298.08 358.27 297.33 366.95 294.99 C 369.05 294.44 371.13 293.80 373.23 293.22 C 387.47 288.28 400.73 280.85 412.90 272.00 C 430.16 259.63 445.72 245.12 461.68 231.16 C 460.68 227.66 459.51 224.21 458.28 220.78 C 456.57 217.24 455.01 213.62 452.89 210.31 C 444.20 195.75 430.25 185.02 415.07 177.87 C 413.42 177.21 411.80 176.49 410.20 175.72 C 404.35 173.32 398.29 171.54 392.24 169.76 C 391.13 169.56 390.02 169.36 388.93 169.14 C 376.58 165.87 363.71 165.33 351.01 164.79 C 339.67 165.48 328.14 165.63 317.09 168.55 M 50.28 191.56 C 56.11 191.67 62.31 192.37 67.18 195.84 C 71.31 198.61 74.87 202.51 76.76 207.14 C 76.67 209.51 74.29 211.17 72.11 211.51 C 77.37 213.11 82.09 216.19 86.22 219.77 C 87.65 220.83 88.38 222.78 87.34 224.38 C 84.34 227.58 79.66 225.91 75.89 225.73 C 66.90 225.77 57.91 225.49 48.92 225.58 C 44.91 227.71 42.23 231.59 38.09 233.49 C 40.76 234.21 45.41 234.40 45.49 238.06 C 46.23 240.73 43.42 241.83 41.46 242.55 C 32.19 246.21 24.84 253.88 20.87 262.94 C 29.25 257.26 38.99 253.60 49.05 252.45 C 51.27 252.00 53.53 253.38 54.03 255.60 C 53.65 256.62 53.28 257.65 52.92 258.69 C 61.79 254.74 71.52 253.51 81.08 252.48 C 83.22 252.22 86.37 252.51 86.88 255.10 C 87.27 257.81 84.31 258.90 82.67 260.42 C 72.96 267.75 66.73 279.76 66.96 291.90 C 68.32 295.92 70.03 300.24 68.60 304.50 C 68.01 306.04 68.29 307.69 69.08 309.11 C 70.80 304.82 71.40 299.99 74.06 296.14 C 76.86 293.22 79.45 290.08 82.45 287.36 C 84.10 285.68 87.70 285.96 88.50 288.39 C 89.36 290.59 90.00 292.88 90.80 295.10 C 91.52 294.56 92.19 293.92 92.32 292.99 C 94.68 284.15 98.62 275.63 104.51 268.57 C 105.66 267.29 107.16 265.66 109.10 266.15 C 111.41 266.42 111.86 269.12 111.71 271.01 C 111.30 279.03 111.54 287.06 111.45 295.09 C 111.27 297.47 112.69 299.72 112.17 302.08 C 110.94 306.63 111.63 311.36 111.65 316.00 C 113.74 373.92 120.40 432.04 136.06 488.00 C 136.50 488.95 136.40 490.99 138.03 490.62 C 148.41 490.66 158.80 490.61 169.19 490.64 C 150.00 449.25 134.36 405.94 126.02 361.00 C 121.14 335.68 119.38 309.74 121.07 284.02 C 122.06 279.81 120.04 273.76 125.05 271.66 C 128.85 272.75 132.21 275.09 134.29 278.49 C 139.57 286.67 141.26 296.50 143.55 305.80 C 145.59 303.35 149.01 299.84 152.21 302.76 C 157.40 308.27 155.66 316.53 155.04 323.33 C 156.96 323.70 158.75 324.68 159.53 326.57 C 162.87 333.55 162.33 341.50 163.06 349.01 C 162.24 353.02 163.07 357.09 162.35 361.10 C 167.35 355.90 170.17 348.95 171.40 341.92 C 173.51 328.65 172.19 315.00 169.01 302.01 C 169.14 299.31 172.61 298.39 174.61 299.70 C 180.20 303.19 185.26 307.45 190.77 311.07 C 186.46 297.87 176.72 287.49 167.76 277.24 C 164.17 272.96 159.65 269.51 156.33 265.01 C 155.52 262.26 158.62 260.41 160.99 260.85 C 167.66 261.76 173.63 265.49 178.55 269.95 C 177.30 268.06 176.41 265.98 175.50 263.92 C 176.20 262.96 176.57 261.47 177.94 261.25 C 180.98 260.16 183.21 263.04 185.19 264.83 C 194.80 275.11 201.55 287.60 208.36 299.80 C 210.89 284.47 206.52 268.91 199.90 255.16 C 198.70 253.05 199.38 249.54 202.15 249.18 C 204.64 249.57 206.81 250.99 209.09 251.98 C 203.23 245.52 195.70 240.78 187.57 237.70 C 172.66 232.44 156.42 231.38 140.84 233.73 C 139.39 234.17 137.98 233.81 136.60 233.35 C 136.03 231.61 135.41 229.42 136.98 228.00 C 143.94 220.63 154.63 218.58 164.36 218.31 L 165.64 219.02 C 165.25 217.42 162.79 217.67 162.39 216.00 C 161.49 213.40 164.31 211.39 166.44 210.65 C 176.35 208.13 186.48 211.49 195.78 214.82 C 191.24 210.02 185.82 206.03 179.83 203.22 C 174.50 200.78 168.94 198.41 162.98 198.28 C 161.81 197.03 160.17 195.85 160.48 193.89 C 162.25 190.31 167.04 191.92 170.14 190.47 C 166.51 189.02 162.76 187.90 159.03 186.78 C 153.24 186.59 147.05 185.81 141.79 188.83 C 131.11 194.36 125.19 205.91 121.92 217.01 C 121.00 219.42 121.26 223.41 118.00 223.93 C 114.04 223.75 114.75 218.80 114.01 216.04 C 112.62 203.87 103.24 194.43 92.71 189.16 C 92.76 190.64 93.36 192.76 91.73 193.67 C 90.18 195.01 88.06 194.27 86.55 193.31 C 80.30 189.68 73.39 186.46 65.99 186.60 C 60.35 186.32 54.93 188.53 50.28 191.56 Z" />
</g>
<g id="#fefefeff">
<path fill="#fefefe" opacity="1.00" d=" M 435.80 135.64 C 441.03 133.62 446.34 131.35 452.01 131.02 C 456.85 131.06 461.94 130.40 466.50 132.48 C 478.14 136.90 485.46 148.08 489.94 159.17 C 491.96 163.60 492.85 168.41 494.43 172.99 C 495.25 175.64 499.75 175.63 500.58 173.01 C 501.94 168.40 501.77 163.45 503.54 158.95 C 507.24 147.61 516.79 139.19 527.25 134.07 C 525.26 137.67 529.22 141.76 532.82 139.79 C 541.03 134.90 550.20 130.51 560.01 131.02 C 564.64 130.89 569.02 132.68 573.06 134.80 C 574.06 135.42 575.11 135.97 576.16 136.52 C 566.93 136.93 557.30 139.85 551.14 147.11 C 549.13 149.54 547.14 152.08 546.01 155.05 C 545.82 158.00 548.74 159.91 551.34 160.32 C 545.05 162.42 539.30 166.09 534.40 170.51 C 532.07 172.17 532.58 175.80 535.12 176.97 C 538.84 178.55 542.99 177.43 546.88 177.23 C 557.51 177.46 568.17 176.81 578.82 177.03 C 580.80 178.48 582.84 179.84 584.94 181.12 C 585.20 181.59 585.72 182.54 585.98 183.01 C 587.90 184.18 589.78 185.44 591.76 186.53 C 589.03 186.82 586.22 187.30 583.95 188.94 C 582.46 190.79 582.08 194.19 584.38 195.57 C 587.32 197.03 590.44 198.13 593.26 199.85 C 601.98 204.85 608.43 213.05 612.63 222.07 C 603.33 214.59 591.65 210.76 580.02 208.86 C 577.38 208.20 573.50 208.86 572.98 212.03 C 573.05 213.48 573.71 214.79 574.15 216.15 C 563.68 211.50 552.17 210.06 540.89 208.76 C 538.24 208.35 534.42 208.87 533.92 212.10 C 533.75 214.56 536.05 215.92 537.73 217.23 C 547.73 224.48 555.17 235.57 556.86 247.91 C 557.10 250.23 557.66 252.52 557.71 254.86 C 555.85 259.79 553.82 265.25 555.61 270.52 C 556.37 272.31 555.62 274.19 554.99 275.90 C 553.92 272.04 552.56 268.28 551.35 264.47 C 549.93 260.02 545.88 257.35 543.11 253.81 C 540.65 251.15 537.31 246.88 533.30 249.49 C 530.86 252.36 530.63 256.53 528.94 259.85 C 527.24 256.34 526.60 252.46 525.11 248.87 C 522.36 241.51 518.60 234.50 513.66 228.38 C 512.35 226.87 510.90 225.22 508.85 224.79 C 506.02 224.54 504.33 227.49 504.54 230.00 C 505.12 237.97 504.78 245.97 504.93 253.96 C 504.87 257.00 505.23 260.11 504.40 263.09 C 503.02 267.04 505.47 270.93 504.94 274.96 C 502.94 347.38 494.98 420.14 474.99 490.01 C 462.23 490.00 449.47 489.99 436.71 490.01 C 453.87 453.56 468.19 415.73 478.71 376.82 C 491.06 331.04 497.78 283.17 492.74 235.81 C 492.43 233.37 489.67 230.98 487.20 232.12 C 481.13 233.79 477.53 239.53 474.97 244.86 C 471.25 253.45 468.94 262.60 467.27 271.79 C 464.98 270.05 463.24 266.74 460.03 266.84 C 456.23 267.02 454.59 270.99 453.43 274.03 C 451.95 280.06 452.40 286.47 453.74 292.49 C 451.68 292.79 449.54 293.49 448.61 295.55 C 444.93 302.58 444.57 310.81 444.45 318.60 C 443.50 321.72 444.20 324.94 444.61 328.08 C 444.25 331.14 444.23 334.23 444.90 337.26 C 436.10 327.81 433.14 314.49 433.05 301.92 C 432.70 290.51 434.13 279.09 436.86 268.02 C 437.52 266.06 435.69 264.66 434.20 263.87 C 436.36 262.47 438.29 260.70 439.52 258.40 C 441.20 255.29 444.04 253.09 446.24 250.38 C 451.60 243.45 460.37 239.39 464.02 231.11 C 466.14 225.27 460.65 221.11 458.61 216.25 C 455.16 208.42 448.76 202.43 444.81 194.90 C 443.23 191.63 439.93 189.84 437.17 187.71 C 436.40 187.32 435.64 186.94 434.89 186.55 C 447.20 184.77 459.75 184.92 472.01 186.97 C 473.76 187.20 475.66 186.05 475.90 184.22 C 476.89 181.08 474.03 178.89 471.92 177.17 C 462.90 170.30 451.01 168.04 439.90 168.64 C 441.95 168.15 444.70 167.52 444.96 164.96 C 445.14 161.80 441.85 159.82 439.13 159.18 C 427.71 156.76 416.19 160.45 405.49 164.22 C 415.64 153.61 429.47 146.41 444.06 144.60 C 446.67 143.45 448.27 139.47 445.53 137.62 C 442.41 136.49 438.99 136.52 435.80 135.64 Z" />
<path fill="#fefefe" opacity="1.00" d=" M 317.09 168.55 C 328.14 165.63 339.67 165.48 351.01 164.79 C 363.71 165.33 376.58 165.87 388.93 169.14 C 390.02 169.36 391.13 169.56 392.24 169.76 C 398.29 171.54 404.35 173.32 410.20 175.72 C 411.80 176.49 413.42 177.21 415.07 177.87 C 430.25 185.02 444.20 195.75 452.89 210.31 C 455.01 213.62 456.57 217.24 458.28 220.78 C 459.51 224.21 460.68 227.66 461.68 231.16 C 445.72 245.12 430.16 259.63 412.90 272.00 C 400.73 280.85 387.47 288.28 373.23 293.22 C 371.13 293.80 369.05 294.44 366.95 294.99 C 358.27 297.33 349.25 298.08 340.28 297.81 C 359.84 272.75 383.47 250.20 396.85 220.90 C 399.02 216.47 400.51 211.77 402.10 207.11 C 402.78 204.72 403.47 202.34 403.90 199.90 C 404.78 196.71 405.26 193.44 405.75 190.18 C 399.95 191.38 394.57 194.09 389.05 196.20 C 387.40 196.89 385.76 197.61 384.13 198.36 C 375.78 201.99 367.70 206.23 359.82 210.78 C 317.30 235.40 281.58 271.76 258.17 315.00 C 254.03 323.09 249.83 331.20 246.74 339.76 C 261.18 336.57 275.10 331.51 289.20 327.11 C 294.76 325.24 300.43 323.71 306.08 322.15 C 307.42 321.74 308.78 321.46 310.15 321.16 C 311.71 320.63 313.33 320.36 314.95 320.04 C 323.77 318.22 332.83 316.70 341.86 317.38 C 348.91 318.93 355.47 322.10 361.84 325.41 C 373.42 331.79 383.92 340.82 390.30 352.55 C 392.92 357.29 394.12 362.60 395.20 367.85 C 396.23 382.27 388.93 395.38 382.90 407.96 C 369.93 432.73 350.52 455.17 324.91 467.27 C 312.94 470.72 299.99 470.18 288.01 466.99 C 286.70 466.61 285.39 466.28 284.10 465.86 C 283.09 465.49 282.09 465.11 281.09 464.73 C 276.91 463.19 272.90 461.25 268.92 459.24 C 249.47 448.51 233.51 432.39 220.29 414.72 C 218.26 411.48 215.31 408.69 214.02 405.08 C 220.06 398.86 227.28 393.77 233.73 387.93 C 233.69 393.62 233.45 399.31 232.85 404.97 C 232.73 412.40 232.41 419.82 232.17 427.24 C 237.65 428.84 243.33 429.23 248.93 430.15 C 251.98 430.29 255.05 430.28 258.11 430.17 C 266.45 429.07 274.92 427.99 282.79 424.79 C 288.05 422.99 293.08 420.55 297.93 417.84 C 324.90 402.25 345.34 375.83 354.06 345.95 C 354.65 343.35 355.38 340.78 355.82 338.15 C 351.07 339.38 346.50 341.17 341.88 342.81 C 319.68 351.38 298.34 362.50 275.09 368.13 C 273.41 368.40 271.65 368.47 270.09 369.22 C 260.46 370.48 250.28 372.30 240.83 369.19 C 223.96 363.26 210.84 349.26 203.91 333.02 C 203.53 332.05 203.12 331.10 202.70 330.16 C 202.55 329.63 202.24 328.57 202.09 328.04 C 199.41 321.36 198.67 314.14 197.84 307.05 C 197.31 301.40 198.68 295.84 199.09 290.23 C 202.64 295.94 205.30 302.15 209.03 307.74 C 214.60 295.40 212.74 281.28 208.84 268.74 C 210.08 264.95 212.64 261.81 214.58 258.38 C 215.42 258.48 217.09 258.69 217.92 258.79 C 217.40 257.79 216.88 256.79 216.36 255.80 C 240.98 218.16 276.20 187.37 317.09 168.55 Z" />
<path fill="#fefefe" opacity="1.00" d=" M 50.28 191.56 C 54.93 188.53 60.35 186.32 65.99 186.60 C 73.39 186.46 80.30 189.68 86.55 193.31 C 88.06 194.27 90.18 195.01 91.73 193.67 C 93.36 192.76 92.76 190.64 92.71 189.16 C 103.24 194.43 112.62 203.87 114.01 216.04 C 114.75 218.80 114.04 223.75 118.00 223.93 C 121.26 223.41 121.00 219.42 121.92 217.01 C 125.19 205.91 131.11 194.36 141.79 188.83 C 147.05 185.81 153.24 186.59 159.03 186.78 C 162.76 187.90 166.51 189.02 170.14 190.47 C 167.04 191.92 162.25 190.31 160.48 193.89 C 160.17 195.85 161.81 197.03 162.98 198.28 C 168.94 198.41 174.50 200.78 179.83 203.22 C 185.82 206.03 191.24 210.02 195.78 214.82 C 186.48 211.49 176.35 208.13 166.44 210.65 C 164.31 211.39 161.49 213.40 162.39 216.00 C 162.79 217.67 165.25 217.42 165.64 219.02 L 164.36 218.31 C 154.63 218.58 143.94 220.63 136.98 228.00 C 135.41 229.42 136.03 231.61 136.60 233.35 C 137.98 233.81 139.39 234.17 140.84 233.73 C 156.42 231.38 172.66 232.44 187.57 237.70 C 195.70 240.78 203.23 245.52 209.09 251.98 C 206.81 250.99 204.64 249.57 202.15 249.18 C 199.38 249.54 198.70 253.05 199.90 255.16 C 206.52 268.91 210.89 284.47 208.36 299.80 C 201.55 287.60 194.80 275.11 185.19 264.83 C 183.21 263.04 180.98 260.16 177.94 261.25 C 176.57 261.47 176.20 262.96 175.50 263.92 C 176.41 265.98 177.30 268.06 178.55 269.95 C 173.63 265.49 167.66 261.76 160.99 260.85 C 158.62 260.41 155.52 262.26 156.33 265.01 C 159.65 269.51 164.17 272.96 167.76 277.24 C 176.72 287.49 186.46 297.87 190.77 311.07 C 185.26 307.45 180.20 303.19 174.61 299.70 C 172.61 298.39 169.14 299.31 169.01 302.01 C 172.19 315.00 173.51 328.65 171.40 341.92 C 170.17 348.95 167.35 355.90 162.35 361.10 C 163.07 357.09 162.24 353.02 163.06 349.01 C 162.33 341.50 162.87 333.55 159.53 326.57 C 158.75 324.68 156.96 323.70 155.04 323.33 C 155.66 316.53 157.40 308.27 152.21 302.76 C 149.01 299.84 145.59 303.35 143.55 305.80 C 141.26 296.50 139.57 286.67 134.29 278.49 C 132.21 275.09 128.85 272.75 125.05 271.66 C 120.04 273.76 122.06 279.81 121.07 284.02 C 119.38 309.74 121.14 335.68 126.02 361.00 C 134.36 405.94 150.00 449.25 169.19 490.64 C 158.80 490.61 148.41 490.66 138.03 490.62 C 136.40 490.99 136.50 488.95 136.06 488.00 C 120.40 432.04 113.74 373.92 111.65 316.00 C 111.63 311.36 110.94 306.63 112.17 302.08 C 112.69 299.72 111.27 297.47 111.45 295.09 C 111.54 287.06 111.30 279.03 111.71 271.01 C 111.86 269.12 111.41 266.42 109.10 266.15 C 107.16 265.66 105.66 267.29 104.51 268.57 C 98.62 275.63 94.68 284.15 92.32 292.99 C 92.19 293.92 91.52 294.56 90.80 295.10 C 90.00 292.88 89.36 290.59 88.50 288.39 C 87.70 285.96 84.10 285.68 82.45 287.36 C 79.45 290.08 76.86 293.22 74.06 296.14 C 71.40 299.99 70.80 304.82 69.08 309.11 C 68.29 307.69 68.01 306.04 68.60 304.50 C 70.03 300.24 68.32 295.92 66.96 291.90 C 66.73 279.76 72.96 267.75 82.67 260.42 C 84.31 258.90 87.27 257.81 86.88 255.10 C 86.37 252.51 83.22 252.22 81.08 252.48 C 71.52 253.51 61.79 254.74 52.92 258.69 C 53.28 257.65 53.65 256.62 54.03 255.60 C 53.53 253.38 51.27 252.00 49.05 252.45 C 38.99 253.60 29.25 257.26 20.87 262.94 C 24.84 253.88 32.19 246.21 41.46 242.55 C 43.42 241.83 46.23 240.73 45.49 238.06 C 45.41 234.40 40.76 234.21 38.09 233.49 C 42.23 231.59 44.91 227.71 48.92 225.58 C 57.91 225.49 66.90 225.77 75.89 225.73 C 79.66 225.91 84.34 227.58 87.34 224.38 C 88.38 222.78 87.65 220.83 86.22 219.77 C 82.09 216.19 77.37 213.11 72.11 211.51 C 74.29 211.17 76.67 209.51 76.76 207.14 C 74.87 202.51 71.31 198.61 67.18 195.84 C 62.31 192.37 56.11 191.67 50.28 191.56 Z" />
<path fill="#fefefe" opacity="1.00" d=" M 170.11 484.44 C 212.45 480.72 256.00 484.06 296.15 498.63 C 284.87 500.38 273.82 503.31 262.96 506.78 C 277.64 503.85 292.09 499.69 307.00 497.92 C 333.15 494.35 359.75 494.07 385.98 497.04 C 388.63 497.25 391.39 497.73 393.98 496.82 C 406.76 493.29 419.75 490.58 432.88 488.75 C 432.04 490.44 431.28 492.17 430.66 493.96 C 446.43 493.96 462.21 494.16 477.96 493.86 C 478.93 491.32 479.50 488.64 480.29 486.04 C 508.39 486.81 536.89 489.99 563.43 499.67 L 563.39 500.42 C 564.00 500.58 565.24 500.89 565.85 501.05 C 565.42 501.10 564.55 501.22 564.12 501.28 C 561.34 506.52 556.77 510.50 553.33 515.28 C 546.29 522.01 540.74 530.19 533.00 536.20 C 529.20 539.05 526.38 543.02 522.38 545.62 C 491.70 572.59 455.20 592.79 416.43 605.56 C 395.05 612.61 372.84 616.82 350.49 619.30 C 350.38 619.73 350.15 620.58 350.04 621.00 L 348.25 621.00 L 349.03 619.45 C 344.35 619.32 339.70 620.17 335.01 620.18 C 323.69 620.87 312.36 620.19 301.04 620.02 C 296.42 619.18 291.72 619.12 287.09 618.45 C 224.07 611.40 163.59 583.98 116.59 541.45 C 105.21 531.33 94.44 520.43 85.17 508.33 C 85.79 508.44 87.04 508.65 87.66 508.76 L 87.36 507.77 C 101.36 498.97 117.46 494.34 133.39 490.43 C 133.48 491.23 133.66 492.85 133.75 493.65 C 147.27 494.42 160.85 493.82 174.39 493.96 C 173.08 490.74 171.53 487.62 170.11 484.44 Z" />
<path fill="#fefefe" opacity="1.00" d=" M 293.53 621.00 C 294.61 619.84 295.86 619.64 297.27 620.37 L 297.03 621.00 L 293.53 621.00 Z" />
</g>
</svg>
